Coordinates
version=1
nRows=34
nColumns=38
inDegrees=no

Units are S.I. units (second, meters, Newtons, ...)
If the header above contains a line with 'inDegrees', this indicates whether rotational values are in degrees (yes) or radians (no).

endheader
time	pelvis_tilt	pelvis_list	pelvis_rotation	pelvis_tx	pelvis_ty	pelvis_tz	hip_flexion_r	hip_adduction_r	hip_rotation_r	knee_angle_r	ankle_angle_r	subtalar_angle_r	mtp_angle_r	hip_flexion_l	hip_adduction_l	hip_rotation_l	knee_angle_l	ankle_angle_l	subtalar_angle_l	mtp_angle_l	lumbar_extension	lumbar_bending	lumbar_rotation	arm_flex_r	arm_add_r	arm_rot_r	elbow_flex_r	pro_sup_r	wrist_flex_r	wrist_dev_r	arm_flex_l	arm_add_l	arm_rot_l	elbow_flex_l	pro_sup_l	wrist_flex_l	wrist_dev_l
5	2.61505	1.37418	-0.920167	0.693379	1.56393	0.930654	-0.232427	0.186784	-0.0702028	0.399589	-0.105354	0	0	0.280644	-0.118584	0.0623584	0.330998	-0.241441	0	0	-0.286236	0.114743	-0.0129482	0.319786	-0.350373	0.107129	1.74934	1.5708	0	0	0.355069	-0.294681	0.0905262	1.68087	1.5708	0	0
5.01	2.60748	1.3741	-0.916417	0.692283	1.56995	0.930313	-0.237571	0.185478	-0.068567	0.402189	-0.107784	0	0	0.273984	-0.11825	0.0639958	0.329262	-0.244196	0	0	-0.285506	0.11694	-0.011224	0.319716	-0.352534	0.107479	1.75122	1.5708	0	0	0.350642	-0.292807	0.088214	1.68503	1.5708	0	0
5.02	2.60095	1.37444	-0.913998	0.691124	1.57606	0.930037	-0.24183	0.183377	-0.0675186	0.406595	-0.110153	0	0	0.266533	-0.117417	0.0650326	0.324926	-0.25007	0	0	-0.284573	0.118614	-0.0100539	0.319982	-0.354785	0.108629	1.75277	1.5708	0	0	0.345072	-0.291033	0.0850162	1.6902	1.5708	0	0
5.03	2.59504	1.37579	-0.912278	0.68988	1.58224	0.929815	-0.244544	0.180236	-0.0669881	0.412906	-0.112717	0	0	0.259035	-0.115683	0.065624	0.31862	-0.260854	0	0	-0.28287	0.119494	-0.00965739	0.320005	-0.356841	0.110591	1.75421	1.5708	0	0	0.338119	-0.289332	0.080917	1.69629	1.5708	0	0
5.04	2.58728	1.37845	-0.908677	0.688554	1.5885	0.929599	-0.245541	0.176447	-0.0657324	0.420047	-0.114843	0	0	0.253094	-0.113257	0.0653073	0.313281	-0.271815	0	0	-0.279653	0.119738	-0.00924313	0.318816	-0.358889	0.112065	1.75574	1.5708	0	0	0.330863	-0.287803	0.0777452	1.70204	1.5708	0	0
5.05	2.57795	1.38236	-0.903543	0.687118	1.59482	0.929391	-0.244675	0.172007	-0.0636539	0.429032	-0.117124	0	0	0.248099	-0.110101	0.0640958	0.307661	-0.284724	0	0	-0.275048	0.11929	-0.00882741	0.316842	-0.36116	0.113094	1.75709	1.5708	0	0	0.323125	-0.286318	0.0749896	1.70766	1.5708	0	0
5.06	2.56031	1.38872	-0.890046	0.685597	1.60125	0.929063	-0.239148	0.166968	-0.0625489	0.442121	-0.11833	0	0	0.246163	-0.106526	0.0623678	0.301454	-0.309925	0	0	-0.266826	0.118394	-0.00915531	0.313984	-0.363329	0.114659	1.75764	1.5708	0	0	0.314116	-0.28507	0.0721862	1.71298	1.5708	0	0
5.07	2.5436	1.39403	-0.876598	0.684011	1.60779	0.928857	-0.23548	0.162492	-0.0610145	0.452617	-0.120448	0	0	0.244328	-0.103582	0.0597595	0.298088	-0.323769	0	0	-0.259987	0.117583	-0.0082835	0.308632	-0.36622	0.113355	1.76062	1.5708	0	0	0.307013	-0.283212	0.0718601	1.71773	1.5708	0	0
5.08	2.52516	1.39973	-0.860738	0.682303	1.61436	0.928646	-0.231166	0.158106	-0.0580087	0.463447	-0.122985	0	0	0.243868	-0.100506	0.057349	0.296445	-0.335699	0	0	-0.251877	0.116709	-0.00753826	0.30244	-0.369184	0.111104	1.76315	1.5708	0	0	0.300599	-0.280988	0.0729356	1.72099	1.5708	0	0
5.09	2.50486	1.40617	-0.842111	0.680522	1.62095	0.928394	-0.225813	0.153624	-0.0548997	0.474909	-0.126217	0	0	0.245146	-0.0971512	0.0557346	0.296884	-0.345538	0	0	-0.243298	0.1151	-0.00626525	0.294164	-0.372398	0.106335	1.76729	1.5708	0	0	0.295346	-0.278767	0.0761222	1.72404	1.5708	0	0
5.1	2.4873	1.41273	-0.825977	0.678756	1.62754	0.928229	-0.220515	0.148684	-0.0514082	0.486663	-0.130033	0	0	0.24645	-0.0934965	0.05406	0.298514	-0.354568	0	0	-0.235279	0.111962	-0.00166075	0.281656	-0.376273	0.0960659	1.77402	1.5708	0	0	0.293641	-0.27651	0.0845322	1.72477	1.5708	0	0
5.11	2.4854	1.41756	-0.824644	0.676991	1.63403	0.928313	-0.21789	0.142767	-0.0488969	0.499068	-0.13535	0	0	0.24476	-0.0893717	0.0523297	0.300751	-0.364215	0	0	-0.226025	0.105687	0.0115025	0.260202	-0.382658	0.0746858	1.77984	1.5708	0	0	0.303406	-0.271174	0.107659	1.71136	1.5708	0	0
5.12	2.49544	1.42129	-0.834512	0.675195	1.64049	0.928625	-0.217285	0.136263	-0.0471882	0.511355	-0.141452	0	0	0.240944	-0.0847551	0.0512129	0.303097	-0.372984	0	0	-0.218984	0.0995699	0.0196561	0.24387	-0.387321	0.0597107	1.7823	1.5708	0	0	0.309426	-0.26742	0.12508	1.70103	1.5708	0	0
5.13	2.512	1.42553	-0.85028	0.673341	1.64697	0.928984	-0.215458	0.128327	-0.0477205	0.527201	-0.149869	0	0	0.236487	-0.0787536	0.0519748	0.304408	-0.380877	0	0	-0.2127	0.092912	0.0236434	0.230773	-0.390691	0.0496569	1.78323	1.5708	0	0	0.311878	-0.265239	0.137817	1.69453	1.5708	0	0
5.14	2.53121	1.42845	-0.868047	0.671411	1.65343	0.929453	-0.215601	0.121185	-0.0470449	0.540178	-0.155886	0	0	0.230846	-0.0731698	0.0539172	0.305909	-0.383221	0	0	-0.207494	0.0882137	0.0202585	0.226228	-0.393171	0.0505832	1.77881	1.5708	0	0	0.307936	-0.265351	0.141618	1.69278	1.5708	0	0
5.15	2.56207	1.42745	-0.897702	0.66938	1.65972	0.930023	-0.219829	0.11481	-0.0450184	0.552404	-0.160471	0	0	0.221352	-0.0686586	0.0549209	0.308658	-0.382689	0	0	-0.196066	0.0860965	0.00766174	0.234942	-0.391775	0.0668258	1.75409	1.5708	0	0	0.299976	-0.268237	0.139571	1.68138	1.5708	0	0
5.16	2.56767	1.43305	-0.901036	0.667365	1.66627	0.930472	-0.21496	0.107487	-0.0433969	0.567127	-0.16612	0	0	0.219022	-0.0616373	0.0591747	0.309352	-0.382507	0	0	-0.203705	0.0793521	0.019302	0.207718	-0.398334	0.0375922	1.78458	1.5708	0	0	0.303925	-0.263006	0.15367	1.69476	1.5708	0	0
5.17	2.58063	1.43741	-0.912179	0.665268	1.67265	0.93076	-0.208843	0.0992317	-0.0433708	0.588955	-0.181302	0	0	0.215187	-0.0540562	0.0625117	0.310369	-0.379974	0	0	-0.198517	0.0732527	0.0243579	0.190783	-0.400839	0.0214488	1.79037	1.5708	0	0	0.307582	-0.260235	0.168473	1.6899	1.5708	0	0
5.18	2.59923	1.43975	-0.928807	0.663126	1.67892	0.931187	-0.205501	0.091919	-0.0409703	0.608061	-0.189926	0	0	0.209077	-0.0469806	0.063632	0.311185	-0.377054	0	0	-0.195545	0.069514	0.018902	0.187238	-0.402019	0.0216387	1.78831	1.5708	0	0	0.301888	-0.260456	0.169488	1.69272	1.5708	0	0
5.19	2.61495	1.44261	-0.94302	0.660951	1.68507	0.931508	-0.19933	0.0837016	-0.0381969	0.630857	-0.19999	0	0	0.203555	-0.0397828	0.0633363	0.311958	-0.371664	0	0	-0.192109	0.0661076	0.0135184	0.18464	-0.403848	0.0225257	1.78622	1.5708	0	0	0.295925	-0.260338	0.169707	1.69596	1.5708	0	0
5.2	2.63493	1.44597	-0.961617	0.658805	1.69114	0.931742	-0.191925	0.0744492	-0.0346482	0.655608	-0.209756	0	0	0.197526	-0.0320819	0.0619545	0.311972	-0.365691	0	0	-0.189843	0.0620229	0.00891811	0.182411	-0.408997	0.0238687	1.78345	1.5708	0	0	0.290485	-0.260364	0.170376	1.7007	1.5708	0	0
5.21	2.66874	1.44854	-0.994223	0.656757	1.69702	0.932125	-0.185507	0.0641917	-0.0293809	0.681088	-0.216528	0	0	0.188696	-0.0239223	0.0595018	0.309661	-0.362786	0	0	-0.18934	0.0563793	0.00496512	0.177656	-0.40742	0.0206678	1.78671	1.5708	0	0	0.286437	-0.260752	0.172222	1.70467	1.5708	0	0
5.22	2.70063	1.45219	-1.02563	0.654767	1.70269	0.932405	-0.17589	0.0530999	-0.0221209	0.710089	-0.226732	0	0	0.181057	-0.0159595	0.0568488	0.307305	-0.356865	0	0	-0.187445	0.0506388	9.50441e-05	0.176176	-0.408684	0.0217064	1.78506	1.5708	0	0	0.281052	-0.26127	0.172061	1.70905	1.5708	0	0
5.23	2.73535	1.45604	-1.06019	0.652928	1.70819	0.932688	-0.164898	0.0417472	-0.0136765	0.740334	-0.237108	0	0	0.173664	-0.00846029	0.054237	0.304212	-0.351863	0	0	-0.186521	0.0446157	-0.00467298	0.175073	-0.409533	0.0224458	1.78431	1.5708	0	0	0.275598	-0.261798	0.171054	1.7147	1.5708	0	0
5.24	2.76575	1.46093	-1.0904	0.6512	1.71348	0.932886	-0.150585	0.0305482	-0.00663426	0.772086	-0.25555	0	0	0.168652	-0.00156635	0.0530469	0.301831	-0.346215	0	0	-0.184401	0.0392832	-0.0126277	0.177922	-0.410367	0.0288113	1.78143	1.5708	0	0	0.267055	-0.263516	0.165847	1.72268	1.5708	0	0
5.25	2.81099	1.46183	-1.13527	0.649518	1.71845	0.933389	-0.139647	0.0196102	-0.00216952	0.803143	-0.26299	0	0	0.159812	0.00432799	0.0515357	0.299211	-0.344908	0	0	-0.187738	0.0337153	-0.0150345	0.176091	-0.412918	0.0274208	1.78274	1.5708	0	0	0.265792	-0.263911	0.168101	1.72657	1.5708	0	0
5.26	2.83672	1.46547	-1.16037	0.647797	1.72323	0.933621	-0.122456	0.00950503	8.46413e-06	0.836833	-0.290286	0	0	0.156438	0.00960797	0.0519161	0.299062	-0.340758	0	0	-0.186703	0.0299895	-0.0239404	0.181744	-0.415558	0.0364095	1.77869	1.5708	0	0	0.258029	-0.26552	0.162199	1.73408	1.5708	0	0
5.27	2.86436	1.46684	-1.18732	0.646138	1.72778	0.933973	-0.106632	0.000959952	0.00168857	0.870237	-0.31015	0	0	0.151238	0.0140222	0.0519263	0.29891	-0.337803	0	0	-0.188749	0.0268695	-0.0290329	0.18386	-0.417603	0.0388692	1.77796	1.5708	0	0	0.25462	-0.265775	0.160409	1.73936	1.5708	0	0
5.28	2.88671	1.46762	-1.20868	0.644617	1.73221	0.934343	-0.0904325	-0.00609969	0.00158141	0.902907	-0.328211	0	0	0.145732	0.0176288	0.0518951	0.298583	-0.334506	0	0	-0.191449	0.024724	-0.0331457	0.185075	-0.419344	0.0398108	1.77845	1.5708	0	0	0.252466	-0.265551	0.159451	1.74387	1.5708	0	0
5.29	2.90146	1.4684	-1.22267	0.643229	1.73651	0.934695	-0.0746527	-0.0120242	-0.000384357	0.931901	-0.3422	0	0	0.140352	0.0204456	0.0513262	0.297867	-0.331423	0	0	-0.193601	0.0232737	-0.0354977	0.185246	-0.421344	0.0389675	1.77908	1.5708	0	0	0.252173	-0.265021	0.160476	1.74637	1.5708	0	0
5.3	2.83592	1.47417	-1.16161	0.641507	1.73961	0.935544	-0.0667806	0.00603393	0.0510312	0.921352	-0.347899	0	0	0.143182	0.0188205	0.0535833	0.294966	-0.33087	0	0	-0.191407	0.029399	-0.0314048	0.185554	-0.426148	0.03657	1.77991	1.5708	0	0	0.252439	-0.260249	0.162172	1.7457	1.5708	0	0
5.31	2.84892	1.47392	-1.17399	0.640181	1.74349	0.936005	-0.0509914	0.00411833	0.0538121	0.951449	-0.35847	0	0	0.13631	0.0215071	0.0534786	0.292744	-0.327614	0	0	-0.192378	0.0265079	-0.0257791	0.178208	-0.429103	0.0257282	1.78051	1.5708	0	0	0.261551	-0.257148	0.174113	1.7379	1.5708	0	0
5.32	2.86218	1.47363	-1.18647	0.638881	1.74728	0.936459	-0.0353087	0.00223846	0.055915	0.98081	-0.368179	0	0	0.129214	0.0242817	0.0539224	0.289558	-0.324617	0	0	-0.193391	0.0236785	-0.0208699	0.172018	-0.432242	0.0164906	1.78053	1.5708	0	0	0.269863	-0.25394	0.185003	1.7304	1.5708	0	0
5.33	2.87313	1.47233	-1.19607	0.637566	1.75095	0.936986	-0.0218229	0.00099894	0.0572521	1.00647	-0.3736	0	0	0.121578	0.0263514	0.0548198	0.286409	-0.322422	0	0	-0.193823	0.0219204	-0.0199023	0.171479	-0.43562	0.014569	1.77514	1.5708	0	0	0.275695	-0.251506	0.192084	1.72265	1.5708	0	0
